<svg width="16" height="14" viewBox="0 0 16 14" fill="none" xmlns="http://www.w3.org/2000/svg">
<path d="M7.04693 12.3175C7.26022 12.5313 7.2598 12.8776 7.04598 13.0909C6.83215 13.3042 6.48587 13.3038 6.27253 13.0899L1.47936 8.28493C1.15982 7.96542 1 7.54542 1 7.12542C1 6.70526 1.15991 6.28504 1.47986 5.96509L6.27253 1.16066C6.48584 0.946827 6.83212 0.94639 7.04598 1.1597C7.25981 1.37301 7.26022 1.71929 7.04693 1.93312L2.25377 6.7381C2.04007 6.95179 2.04007 7.29878 2.25327 7.51198L7.04693 12.3175Z" fill="black"/>
<path d="M14.4531 6.57838C14.7552 6.57838 15 6.82321 15 7.12528C15 7.42732 14.7552 7.67218 14.4531 7.67218L4.55418 7.67218C4.25211 7.67218 4.00728 7.42734 4.00728 7.12528C4.00728 6.82321 4.25211 6.57838 4.55418 6.57838L14.4531 6.57838Z" fill="black"/>
<path d="M7.04693 12.3175C7.26022 12.5313 7.2598 12.8776 7.04598 13.0909C6.83215 13.3042 6.48587 13.3038 6.27253 13.0899L1.47936 8.28493C1.15982 7.96542 1 7.54542 1 7.12542C1 6.70526 1.15991 6.28504 1.47986 5.96509L6.27253 1.16066C6.48584 0.946827 6.83212 0.94639 7.04598 1.1597C7.25981 1.37301 7.26022 1.71929 7.04693 1.93312L2.25377 6.7381C2.04007 6.95179 2.04007 7.29878 2.25327 7.51198L7.04693 12.3175Z" stroke="black" stroke-width="0.5"/>
<path d="M14.4531 6.57838C14.7552 6.57838 15 6.82321 15 7.12528C15 7.42732 14.7552 7.67218 14.4531 7.67218L4.55418 7.67218C4.25211 7.67218 4.00728 7.42734 4.00728 7.12528C4.00728 6.82321 4.25211 6.57838 4.55418 6.57838L14.4531 6.57838Z" stroke="black" stroke-width="0.5"/>
</svg>
