<svg width="15" height="15" viewBox="0 0 10 10" fill="none" xmlns="http://www.w3.org/2000/svg">
<path fill-rule="evenodd" clip-rule="evenodd" d="M6.38474 5L9.71321 8.32847C10.0956 8.71086 10.0956 9.33083 9.71321 9.71321C9.33083 10.0956 8.71086 10.0956 8.32847 9.71321L5 6.38474L1.67153 9.71321C1.28914 10.0956 0.669173 10.0956 0.286789 9.71321C-0.0955962 9.33083 -0.0955962 8.71086 0.286789 8.32847L3.61526 5L0.286789 1.67153C-0.0955962 1.28914 -0.0955962 0.669173 0.286789 0.286789C0.669173 -0.0955962 1.28914 -0.0955962 1.67153 0.286789L5 3.61526L8.32847 0.286789C8.71086 -0.0955962 9.33083 -0.0955962 9.71321 0.286789C10.0956 0.669173 10.0956 1.28914 9.71321 1.67153L6.38474 5Z" fill="#C8CDDD"/>
</svg>
