<?xml version="1.0" encoding="utf-8"?>
<svg xmlns="http://www.w3.org/2000/svg" xmlns:xlink="http://www.w3.org/1999/xlink" style="margin: auto; background: none; display: block; shape-rendering: auto;" width="217px" height="217px" viewBox="0 0 100 100" preserveAspectRatio="xMidYMid">
<g transform="rotate(0 50 50)">
  <rect x="48" y="23.5" rx="2" ry="2.64" width="4" height="11" fill="#ff5656">
    <animate attributeName="opacity" values="1;0" keyTimes="0;1" dur="0.5847953216374269s" begin="-0.5263157894736842s" repeatCount="indefinite"></animate>
  </rect>
</g><g transform="rotate(36 50 50)">
  <rect x="48" y="23.5" rx="2" ry="2.64" width="4" height="11" fill="#ff5656">
    <animate attributeName="opacity" values="1;0" keyTimes="0;1" dur="0.5847953216374269s" begin="-0.4678362573099415s" repeatCount="indefinite"></animate>
  </rect>
</g><g transform="rotate(72 50 50)">
  <rect x="48" y="23.5" rx="2" ry="2.64" width="4" height="11" fill="#ff5656">
    <animate attributeName="opacity" values="1;0" keyTimes="0;1" dur="0.5847953216374269s" begin="-0.4093567251461988s" repeatCount="indefinite"></animate>
  </rect>
</g><g transform="rotate(108 50 50)">
  <rect x="48" y="23.5" rx="2" ry="2.64" width="4" height="11" fill="#ff5656">
    <animate attributeName="opacity" values="1;0" keyTimes="0;1" dur="0.5847953216374269s" begin="-0.3508771929824561s" repeatCount="indefinite"></animate>
  </rect>
</g><g transform="rotate(144 50 50)">
  <rect x="48" y="23.5" rx="2" ry="2.64" width="4" height="11" fill="#ff5656">
    <animate attributeName="opacity" values="1;0" keyTimes="0;1" dur="0.5847953216374269s" begin="-0.29239766081871343s" repeatCount="indefinite"></animate>
  </rect>
</g><g transform="rotate(180 50 50)">
  <rect x="48" y="23.5" rx="2" ry="2.64" width="4" height="11" fill="#ff5656">
    <animate attributeName="opacity" values="1;0" keyTimes="0;1" dur="0.5847953216374269s" begin="-0.23391812865497075s" repeatCount="indefinite"></animate>
  </rect>
</g><g transform="rotate(216 50 50)">
  <rect x="48" y="23.5" rx="2" ry="2.64" width="4" height="11" fill="#ff5656">
    <animate attributeName="opacity" values="1;0" keyTimes="0;1" dur="0.5847953216374269s" begin="-0.17543859649122806s" repeatCount="indefinite"></animate>
  </rect>
</g><g transform="rotate(252 50 50)">
  <rect x="48" y="23.5" rx="2" ry="2.64" width="4" height="11" fill="#ff5656">
    <animate attributeName="opacity" values="1;0" keyTimes="0;1" dur="0.5847953216374269s" begin="-0.11695906432748537s" repeatCount="indefinite"></animate>
  </rect>
</g><g transform="rotate(288 50 50)">
  <rect x="48" y="23.5" rx="2" ry="2.64" width="4" height="11" fill="#ff5656">
    <animate attributeName="opacity" values="1;0" keyTimes="0;1" dur="0.5847953216374269s" begin="-0.05847953216374269s" repeatCount="indefinite"></animate>
  </rect>
</g><g transform="rotate(324 50 50)">
  <rect x="48" y="23.5" rx="2" ry="2.64" width="4" height="11" fill="#ff5656">
    <animate attributeName="opacity" values="1;0" keyTimes="0;1" dur="0.5847953216374269s" begin="0s" repeatCount="indefinite"></animate>
  </rect>
</g>
<!-- [ldio] generated by https://loading.io/ --></svg>