<svg width="14" height="14" viewBox="0 0 14 14" fill="none" xmlns="http://www.w3.org/2000/svg">
<path fill-rule="evenodd" clip-rule="evenodd" d="M2.33275 4.66667C2.33275 4.34467 2.59408 4.08333 2.91608 4.08333C3.23808 4.08333 3.49942 4.34467 3.49942 4.66667C3.49942 4.98867 3.23808 5.25 2.91608 5.25C2.59408 5.25 2.33275 4.98867 2.33275 4.66667ZM11.0828 6.41667C10.7608 6.41667 10.4994 6.15533 10.4994 5.83333C10.4994 5.51133 10.7608 5.25 11.0828 5.25C11.4047 5.25 11.6661 5.51133 11.6661 5.83333C11.6661 6.15533 11.4047 6.41667 11.0828 6.41667ZM2.33275 8.16667C2.33275 7.84467 2.59408 7.58333 2.91608 7.58333C3.23808 7.58333 3.49942 7.84467 3.49942 8.16667C3.49942 8.48867 3.23808 8.75 2.91608 8.75C2.59408 8.75 2.33275 8.48867 2.33275 8.16667ZM11.0828 9.91667C10.7608 9.91667 10.4994 9.65533 10.4994 9.33333C10.4994 9.01133 10.7608 8.75 11.0828 8.75C11.4047 8.75 11.6661 9.01133 11.6661 9.33333C11.6661 9.65533 11.4047 9.91667 11.0828 9.91667ZM7.28292 11.7921C8.10833 12.0173 8.96233 12.25 9.9155 12.25C10.5922 12.25 11.3313 12.0989 12.1135 11.8003C13.2417 11.3703 14 10.2731 14 9.06967V4.66667C14 3.92467 13.6599 3.24333 13.0667 2.79708C12.4804 2.3555 11.7408 2.219 11.0361 2.42142C10.5362 2.56608 9.9575 2.625 9.04167 2.625C8.24483 2.625 7.50283 2.42258 6.7165 2.20792L6.71545 2.20763C5.88978 1.98255 5.03668 1.75 4.08392 1.75C3.40783 1.75 2.66817 1.90108 1.88592 2.19975C0.75775 2.62967 0 3.72692 0 4.93033V9.33333C0 10.0753 0.340083 10.7567 0.933333 11.2029C1.52017 11.6445 2.25983 11.781 2.96333 11.5786C3.46325 11.4339 4.04133 11.375 4.95775 11.375C5.75458 11.375 6.49658 11.5774 7.28292 11.7921ZM7.58929 10.666C6.76361 10.4409 5.91051 10.2083 4.95775 10.2083L4.95717 10.2078C3.92408 10.2078 3.25208 10.2801 2.639 10.4568C2.29017 10.5578 1.92442 10.4889 1.63333 10.2702C1.33583 10.0468 1.16492 9.70492 1.16492 9.33333V4.93033C1.16492 4.1965 1.61 3.5525 2.30008 3.29C2.94992 3.04208 3.549 2.91667 4.08275 2.91667C4.87958 2.91667 5.62158 3.11908 6.40792 3.33375L6.40896 3.33404C7.23464 3.55911 8.08774 3.79167 9.0405 3.79167C10.0742 3.79167 10.7456 3.71933 11.3587 3.54258C11.7081 3.44225 12.0738 3.51108 12.3649 3.72983C12.6624 3.95325 12.8333 4.29508 12.8333 4.66667V9.06967C12.8333 9.8035 12.3883 10.4475 11.6982 10.71C11.0483 10.9579 10.4487 11.0833 9.9155 11.0833C9.11867 11.0833 8.37667 10.8809 7.59033 10.6663L7.58929 10.666ZM5.23945 7.64388L5.33056 6.64551L5.40378 6.6522L5.89114 7.70334L6.62338 7.77016L6.08909 6.6668C6.29946 6.62699 6.45625 6.54051 6.55946 6.40735C6.66267 6.27418 6.72106 6.13324 6.73463 5.98452C6.75443 5.76754 6.68836 5.57468 6.5364 5.40594C6.38444 5.2372 6.15957 5.13925 5.8618 5.11207L4.84766 5.01953L4.61339 7.58675L5.23945 7.64388ZM5.37394 6.1701L5.43033 5.55207L5.81842 5.58748C5.91117 5.59595 5.98294 5.632 6.03374 5.69563C6.08454 5.75927 6.10571 5.83741 6.09726 5.93005C6.08903 6.02026 6.05428 6.09083 5.99303 6.14179C5.93421 6.19296 5.85721 6.2142 5.76202 6.20552L5.37394 6.1701ZM8.67109 6.93191C8.65641 7.09281 8.59991 7.21303 8.50159 7.29256C8.4035 7.36965 8.29587 7.40285 8.17871 7.39216C8.06156 7.38147 7.96183 7.32812 7.87953 7.23211C7.79723 7.1361 7.76342 7.00764 7.7781 6.84673C7.79279 6.68582 7.84918 6.56682 7.94727 6.48974C8.04559 6.41021 8.15333 6.37579 8.27048 6.38648C8.38764 6.39717 8.48737 6.45052 8.56967 6.54653C8.65197 6.64254 8.68578 6.771 8.67109 6.93191ZM8.46998 5.85894C8.21126 5.83533 8.00355 5.91348 7.84685 6.09339L7.87121 5.82643L7.24515 5.7693L6.97017 8.78267L7.59623 8.8398L7.71203 7.57082C7.8389 7.79873 8.03047 7.92437 8.28676 7.94776C8.54304 7.97115 8.77039 7.89356 8.9688 7.715C9.16722 7.53644 9.28033 7.29479 9.30814 6.99004C9.33595 6.68529 9.26844 6.42715 9.10562 6.21563C8.94302 6.00167 8.73114 5.88277 8.46998 5.85894Z" fill="black"/>
<path d="M2.33275 4.66667C2.33275 4.34467 2.59408 4.08333 2.91608 4.08333C3.23808 4.08333 3.49942 4.34467 3.49942 4.66667C3.49942 4.98867 3.23808 5.25 2.91608 5.25C2.59408 5.25 2.33275 4.98867 2.33275 4.66667Z" fill="#30B05C"/>
<path d="M11.0828 6.41667C10.7608 6.41667 10.4994 6.15533 10.4994 5.83333C10.4994 5.51133 10.7608 5.25 11.0828 5.25C11.4047 5.25 11.6661 5.51133 11.6661 5.83333C11.6661 6.15533 11.4047 6.41667 11.0828 6.41667Z" fill="#30B05C"/>
<path d="M2.33275 8.16667C2.33275 7.84467 2.59408 7.58333 2.91608 7.58333C3.23808 7.58333 3.49942 7.84467 3.49942 8.16667C3.49942 8.48867 3.23808 8.75 2.91608 8.75C2.59408 8.75 2.33275 8.48867 2.33275 8.16667Z" fill="#30B05C"/>
<path d="M11.0828 9.91667C10.7608 9.91667 10.4994 9.65533 10.4994 9.33333C10.4994 9.01133 10.7608 8.75 11.0828 8.75C11.4047 8.75 11.6661 9.01133 11.6661 9.33333C11.6661 9.65533 11.4047 9.91667 11.0828 9.91667Z" fill="#30B05C"/>
<path fill-rule="evenodd" clip-rule="evenodd" d="M5.23805 7.64438L5.32915 6.64602L5.40238 6.6527L5.88974 7.70385L6.62197 7.77067L6.08769 6.6673C6.29806 6.6275 6.45484 6.54101 6.55806 6.40785C6.66127 6.27469 6.71966 6.13375 6.73323 5.98503C6.75303 5.76804 6.68695 5.57518 6.53499 5.40644C6.38304 5.2377 6.15817 5.13975 5.8604 5.11258L4.84625 5.02003L4.61199 7.58725L5.23805 7.64438ZM5.37253 6.17061L5.42893 5.55257L5.81701 5.58799C5.90976 5.59645 5.98154 5.6325 6.03234 5.69613C6.08314 5.75977 6.10431 5.83791 6.09585 5.93055C6.08762 6.02076 6.05288 6.09134 5.99162 6.14229C5.93281 6.19346 5.85581 6.21471 5.76062 6.20602L5.37253 6.17061Z" fill="#30B05C"/>
<path fill-rule="evenodd" clip-rule="evenodd" d="M8.46858 5.85945C8.20985 5.83584 8.00214 5.91399 7.84544 6.09389L7.8698 5.82693L7.24374 5.7698L6.96877 8.78317L7.59483 8.8403L7.71063 7.57132C7.8375 7.79923 8.02907 7.92488 8.28535 7.94826C8.54163 7.97165 8.76898 7.89406 8.9674 7.7155C9.16581 7.53695 9.27893 7.29529 9.30674 6.99054C9.33454 6.68579 9.26704 6.42765 9.10422 6.21613C8.94162 6.00217 8.72974 5.88328 8.46858 5.85945ZM8.66969 6.93241C8.65501 7.09332 8.59851 7.21354 8.50019 7.29306C8.40209 7.37015 8.29447 7.40335 8.17731 7.39266C8.06015 7.38197 7.96042 7.32862 7.87813 7.23261C7.79583 7.1366 7.76202 7.00814 7.7767 6.84724C7.79138 6.68633 7.84777 6.56733 7.94587 6.49024C8.04419 6.41071 8.15192 6.37629 8.26908 6.38698C8.38624 6.39768 8.48597 6.45103 8.56827 6.54703C8.65057 6.64304 8.68437 6.7715 8.66969 6.93241Z" fill="#30B05C"/>
<path fill-rule="evenodd" clip-rule="evenodd" d="M7.28292 11.7921C8.10833 12.0173 8.96233 12.25 9.9155 12.25C10.5922 12.25 11.3313 12.0989 12.1135 11.8003C13.2417 11.3703 14 10.2731 14 9.06967V4.66667C14 3.92467 13.6599 3.24333 13.0667 2.79708C12.4804 2.3555 11.7408 2.219 11.0361 2.42142C10.5362 2.56608 9.9575 2.625 9.04167 2.625C8.24483 2.625 7.50283 2.42258 6.7165 2.20792L6.71545 2.20763C5.88978 1.98255 5.03668 1.75 4.08392 1.75C3.40783 1.75 2.66817 1.90108 1.88592 2.19975C0.75775 2.62967 0 3.72692 0 4.93033V9.33333C0 10.0753 0.340083 10.7567 0.933333 11.2029C1.52017 11.6445 2.25983 11.781 2.96333 11.5786C3.46325 11.4339 4.04133 11.375 4.95775 11.375C5.75458 11.375 6.49658 11.5774 7.28292 11.7921ZM7.58929 10.666C6.76361 10.4409 5.91051 10.2083 4.95775 10.2083C3.92467 10.2083 3.25208 10.2801 2.639 10.4568C2.29017 10.5578 1.92442 10.4889 1.63333 10.2702C1.33583 10.0468 1.16492 9.70492 1.16492 9.33333V4.93033C1.16492 4.1965 1.61 3.5525 2.30008 3.29C2.94992 3.04208 3.549 2.91667 4.08275 2.91667C4.87958 2.91667 5.62158 3.11908 6.40792 3.33375L6.40896 3.33404C7.23464 3.55911 8.08774 3.79167 9.0405 3.79167C10.0742 3.79167 10.7456 3.71933 11.3587 3.54258C11.7081 3.44225 12.0738 3.51108 12.3649 3.72983C12.6624 3.95325 12.8333 4.29508 12.8333 4.66667V9.06967C12.8333 9.8035 12.3883 10.4475 11.6982 10.71C11.0483 10.9579 10.4487 11.0833 9.9155 11.0833C9.11867 11.0833 8.37667 10.8809 7.59033 10.6663L7.58929 10.666Z" fill="#30B05C"/>
</svg>
