<svg width="14" height="14" viewBox="0 0 14 14" fill="none" xmlns="http://www.w3.org/2000/svg">
<path d="M12.4168 1.58302C11.953 1.1192 11.3364 0.86377 10.6805 0.86377C10.0246 0.86377 9.40792 1.1192 8.94412 1.58299L2.08158 8.44556C2.02319 8.50395 1.98088 8.57644 1.95874 8.65599L0.880845 12.5285C0.834367 12.6956 0.88166 12.8747 1.0046 12.997C1.09569 13.0876 1.21775 13.1365 1.34273 13.1365C1.3864 13.1365 1.43046 13.1305 1.47368 13.1182L5.34622 12.0182C5.5096 11.9718 5.63626 11.8424 5.67912 11.678C5.72198 11.5137 5.67466 11.3389 5.55474 11.2186L3.11333 8.76978L8.80181 3.08127L10.9174 5.19683L6.56261 9.53973C6.37514 9.72669 6.37474 10.0302 6.5617 10.2177C6.74865 10.4052 7.05223 10.4056 7.23968 10.2186L12.4168 5.05565C12.8806 4.59185 13.136 3.97522 13.136 3.31932C13.136 2.66343 12.8806 2.04679 12.4168 1.58302ZM4.30048 11.3186L2.03367 11.9624L2.66852 9.68163L4.30048 11.3186ZM11.7393 4.3772L11.5963 4.5198L9.47981 2.4033L9.62214 2.26097C9.90482 1.97826 10.2807 1.82258 10.6805 1.82258C11.0803 1.82258 11.4561 1.97826 11.7388 2.26099C12.0215 2.54367 12.1772 2.91952 12.1772 3.31932C12.1772 3.71912 12.0215 4.09497 11.7393 4.3772Z" fill="black"/>
</svg>
