<svg width="11" height="11" viewBox="0 0 11 11" fill="none" xmlns="http://www.w3.org/2000/svg">
<path fill-rule="evenodd" clip-rule="evenodd" d="M9.875 4.875H6.125V1.125C6.125 0.779842 5.84515 0.5 5.5 0.5C5.15485 0.5 4.875 0.779842 4.875 1.125V4.875H1.125C0.779842 4.875 0.5 5.15485 0.5 5.5C0.5 5.84515 0.779842 6.125 1.125 6.125H4.875V9.875C4.875 10.2201 5.15485 10.5 5.5 10.5C5.84515 10.5 6.125 10.2201 6.125 9.875V6.125H9.875C10.2202 6.125 10.5 5.84515 10.5 5.5C10.5 5.15485 10.2202 4.875 9.875 4.875Z" fill="white" stroke="white"/>
</svg>
