<svg width="17" height="17" viewBox="0 0 17 17" fill="none" xmlns="http://www.w3.org/2000/svg">
<path fill-rule="evenodd" clip-rule="evenodd" d="M1 8.04634C1 11.9318 4.15274 15.0927 8.02771 15.0927C11.9029 15.0927 15.0555 11.9318 15.0555 8.04634C15.0555 4.16109 11.9029 1 8.02771 1C4.15274 1 1 4.16109 1 8.04634ZM2.29624 8.0472C2.29624 4.87917 4.86687 2.30172 8.02652 2.30172C11.1862 2.30172 13.7568 4.87917 13.7568 8.0472C13.7568 11.2152 11.1862 13.7927 8.02652 13.7927C4.86687 13.7927 2.29624 11.2152 2.29624 8.0472Z" fill="#B7BED3"/>
<path d="M13.7994 14.7471L14.8926 15.8094C15.0193 15.9365 15.1852 16 15.3512 16C15.5171 16 15.6832 15.9365 15.8099 15.8094C16.0634 15.5555 16.0634 15.1436 15.8099 14.8897L14.7168 13.8273C14.4633 13.5732 14.0529 13.5732 13.7994 13.8273C13.5459 14.0812 13.5459 14.4932 13.7994 14.7471Z" fill="#B7BED3"/>
<path fill-rule="evenodd" clip-rule="evenodd" d="M1 8.04634C1 11.9318 4.15274 15.0927 8.02771 15.0927C11.9029 15.0927 15.0555 11.9318 15.0555 8.04634C15.0555 4.16109 11.9029 1 8.02771 1C4.15274 1 1 4.16109 1 8.04634ZM2.29624 8.0472C2.29624 4.87917 4.86687 2.30172 8.02652 2.30172C11.1862 2.30172 13.7568 4.87917 13.7568 8.0472C13.7568 11.2152 11.1862 13.7927 8.02652 13.7927C4.86687 13.7927 2.29624 11.2152 2.29624 8.0472Z" stroke="#B7BED3" stroke-width="0.8"/>
<path d="M13.7994 14.7471L14.8926 15.8094C15.0193 15.9365 15.1852 16 15.3512 16C15.5171 16 15.6832 15.9365 15.8099 15.8094C16.0634 15.5555 16.0634 15.1436 15.8099 14.8897L14.7168 13.8273C14.4633 13.5732 14.0529 13.5732 13.7994 13.8273C13.5459 14.0812 13.5459 14.4932 13.7994 14.7471Z" stroke="#B7BED3" stroke-width="0.8"/>
</svg>
