<svg width="14" height="14" viewBox="0 0 14 14" fill="none" xmlns="http://www.w3.org/2000/svg">
<path d="M8.61163 1.61538C8.61163 2.50754 7.8884 3.23077 6.99624 3.23077C6.10409 3.23077 5.38086 2.50754 5.38086 1.61538C5.38086 0.723232 6.10409 0 6.99624 0C7.8884 0 8.61163 0.723232 8.61163 1.61538Z" fill="black"/>
<path d="M8.61163 7C8.61163 7.89215 7.8884 8.61539 6.99624 8.61539C6.10409 8.61539 5.38086 7.89215 5.38086 7C5.38086 6.10785 6.10409 5.38462 6.99624 5.38462C7.8884 5.38462 8.61163 6.10785 8.61163 7Z" fill="black"/>
<path d="M8.61163 12.3846C8.61163 13.2768 7.8884 14 6.99624 14C6.10409 14 5.38086 13.2768 5.38086 12.3846C5.38086 11.4925 6.10409 10.7692 6.99624 10.7692C7.8884 10.7692 8.61163 11.4925 8.61163 12.3846Z" fill="black"/>
</svg>
