<svg width="20" height="20" viewBox="0 0 14 14" fill="none" xmlns="http://www.w3.org/2000/svg">
<g clip-path="url(#clip0_8985_21831)">
<path fill-rule="evenodd" clip-rule="evenodd" d="M7.75873 0.863281C8.46836 0.863281 9.04712 1.49557 9.05862 2.27774L9.0588 2.30148V2.85274H11.6806C11.92 2.85274 12.114 3.06739 12.114 3.33214C12.114 3.59385 11.9245 3.80642 11.6892 3.81145L11.6806 3.81154H11.2318L10.8566 9.1938C10.839 9.44522 10.6492 9.63635 10.4249 9.63635C10.4138 9.63635 10.4024 9.63587 10.3911 9.63494C10.1553 9.61481 9.97823 9.38947 9.99181 9.12948L9.99238 9.12007L10.3625 3.81154H3.63813L4.16089 11.3084C4.20267 11.799 4.56613 12.1697 5.0103 12.1771L5.02379 12.1772H8.97689C9.42415 12.1772 9.79227 11.8154 9.83872 11.3332L9.84003 11.3186C9.8617 11.055 10.0724 10.8607 10.3109 10.8847C10.5493 10.9088 10.7249 11.1421 10.7031 11.4058C10.6227 12.3822 9.89446 13.1211 9.00393 13.1358L8.97689 13.136H5.02379C4.59021 13.136 4.17517 12.9579 3.85502 12.6345C3.53488 12.3112 3.33681 11.8701 3.29746 11.3924L2.76887 3.81154H2.32008C2.08075 3.81154 1.88672 3.59701 1.88672 3.33214C1.88672 3.07054 2.07616 2.85785 2.31155 2.85283L2.32008 2.85274H4.94191V2.30148C4.94191 1.51634 5.51347 0.876199 6.22051 0.863474L6.24198 0.863281H7.75873ZM7.00035 4.77034C7.23683 4.77034 7.42909 4.97991 7.43363 5.24031L7.43371 5.24974V10.7374C7.43371 11.0021 7.23968 11.2168 7.00035 11.2168C6.76388 11.2168 6.57162 11.0072 6.56708 10.7468L6.567 10.7374V5.24974C6.567 4.98499 6.76103 4.77034 7.00035 4.77034ZM5.03161 4.7709C5.26744 4.75924 5.46815 4.95963 5.48301 5.21946L5.48346 5.22888L5.70014 10.7165C5.71062 10.981 5.52525 11.2048 5.28615 11.2164C5.2797 11.2167 5.27323 11.2168 5.26689 11.2168C5.03916 11.2168 4.84929 11.0208 4.83474 10.7681L4.83427 10.7584L4.61759 5.2708C4.60713 5.00629 4.79247 4.7825 5.03161 4.7709ZM8.51738 5.22899C8.52775 4.96448 8.73048 4.75918 8.96926 4.7709C9.20552 4.78235 9.38931 5.00098 9.38354 5.26136L9.38325 5.27079L9.16657 10.7584C9.15641 11.0158 8.9646 11.2168 8.73395 11.2168C8.7275 11.2168 8.72116 11.2167 8.71472 11.2164C8.47843 11.2049 8.29466 10.9863 8.30041 10.7259L8.3007 10.7165L8.51738 5.22899ZM7.75887 1.82209H6.24212C6.00597 1.82209 5.8134 2.03201 5.80884 2.29207L5.80876 2.30149V2.85274H8.19222V2.30149C8.19222 2.04025 8.00236 1.82721 7.76738 1.82218L7.75887 1.82209Z" fill="#E60023"/>
</g>
<defs>
<clipPath id="clip0_8985_21831">
<rect width="12.2727" height="12.2727" fill="white" transform="translate(0.863281 0.863281)"/>
</clipPath>
</defs>
</svg>
