<svg width="33" height="30" viewBox="0 0 33 30" fill="none" xmlns="http://www.w3.org/2000/svg">
<path fill-rule="evenodd" clip-rule="evenodd" d="M31.6433 22.4157L20.5197 2.52809C19.677 0.842696 17.9916 0 16.1376 0C14.2837 0 12.5983 0.842696 11.7556 2.52809L0.632022 22.4157C-0.210674 23.9326 -0.210674 25.9551 0.632022 27.4719C1.47472 28.9888 3.16011 30 5.01405 30H27.2612C29.1152 30 30.632 28.9888 31.6433 27.4719C32.6545 25.9551 32.486 24.1011 31.6433 22.4157ZM28.6826 25.9008L28.6826 25.9008C28.485 26.1528 28.1113 26.6292 27.2612 26.6292H5.01405C4.17135 26.6292 3.66573 26.1236 3.49719 25.7865C3.48472 25.7616 3.47133 25.7357 3.45743 25.7089C3.28339 25.3728 3.02898 24.8815 3.49719 24.1011L14.6208 4.04494C15.1264 3.20225 15.8006 3.20225 16.1376 3.20225C16.4747 3.20225 17.1489 3.20225 17.6545 4.04494L28.7781 24.1011C29.0409 24.7583 28.8939 25.3129 28.8163 25.6052C28.7944 25.6878 28.7781 25.7494 28.7781 25.7865C28.7512 25.8134 28.7201 25.8531 28.6826 25.9008ZM16.1375 9.77527C15.1263 9.77527 14.4521 10.4494 14.4521 11.4607V16.5168C14.4521 17.5281 15.1263 18.2022 16.1375 18.2022C17.1488 18.2022 17.8229 17.5281 17.8229 16.5168V11.4607C17.8229 10.4494 17.1488 9.77527 16.1375 9.77527ZM17.8229 21.573C17.8229 22.5038 17.0684 23.2584 16.1375 23.2584C15.2067 23.2584 14.4521 22.5038 14.4521 21.573C14.4521 20.6422 15.2067 19.8876 16.1375 19.8876C17.0684 19.8876 17.8229 20.6422 17.8229 21.573Z" fill="#FAAC17"/>
</svg>
