<svg width="17" height="19" viewBox="0 0 17 19" fill="none" xmlns="http://www.w3.org/2000/svg">
<path d="M17 9.77803C17 14.7382 13.1944 18.7592 8.5 18.7592C3.80558 18.7592 -2.052e-07 14.7382 0 9.77803C2.052e-07 4.81787 3.80558 0.796875 8.5 0.796875C13.1944 0.796875 17 4.81788 17 9.77803ZM15.5833 9.77803C15.5833 5.64457 12.412 2.29373 8.5 2.29373C4.58798 2.29373 1.41667 5.64457 1.41667 9.77803C1.41667 13.9115 4.58798 17.2623 8.5 17.2623C12.412 17.2623 15.5833 13.9115 15.5833 9.77803ZM12.9033 11.0655C12.9033 11.4546 12.6224 11.7743 12.2632 11.8106L12.1949 11.814L6.65881 11.8138L7.27887 12.4695C7.5382 12.7435 7.55441 13.1772 7.32749 13.4711L7.27887 13.528C7.01953 13.802 6.60914 13.8191 6.33093 13.5794L6.27713 13.528L4.52811 11.6799C4.38641 11.5302 4.30681 11.3272 4.30681 11.1154C4.30681 10.699 4.60854 10.3571 4.99359 10.3204L5.06237 10.3171H12.1949C12.5861 10.3171 12.9033 10.6522 12.9033 11.0655ZM12.9033 8.45828C12.9033 8.87469 12.6015 9.21664 12.2165 9.25334L12.1477 9.25661H5.01514C4.62394 9.25661 4.30681 8.92152 4.30681 8.50818C4.30681 8.11914 4.58773 7.79944 4.94693 7.76317L5.01514 7.75975L10.5513 7.75996L9.93122 7.10419C9.67188 6.83018 9.65568 6.39656 9.88259 6.10259L9.93122 6.04575C10.1905 5.77174 10.6009 5.75461 10.8792 5.99437L10.933 6.04575L12.682 7.89378C12.8237 8.0435 12.9033 8.24655 12.9033 8.45828Z" fill="#E60023"/>
</svg>
