<svg width="15" height="15" viewBox="0 0 15 15" fill="none" xmlns="http://www.w3.org/2000/svg">
<path fill-rule="evenodd" clip-rule="evenodd" d="M2.34374 0H4.57033C5.86264 0 6.91406 1.05142 6.91406 2.34374V4.57033C6.91406 5.86264 5.86264 6.91406 4.57033 6.91406H2.34374C1.05142 6.91406 0 5.86264 0 4.57033V2.34374C0 1.05142 1.05142 0 2.34374 0ZM4.57033 5.7422C5.21647 5.7422 5.7422 5.21647 5.7422 4.57033V2.34374C5.7422 1.69757 5.21647 1.17187 4.57033 1.17187H2.34374C1.69757 1.17187 1.17187 1.69757 1.17187 2.34374V4.57033C1.17187 5.21647 1.69757 5.7422 2.34374 5.7422H4.57033Z" fill="#878D9F"/>
<path fill-rule="evenodd" clip-rule="evenodd" d="M10.4297 0H12.6563C13.9486 0 15 1.05142 15 2.34374V4.57033C15 5.86264 13.9486 6.91406 12.6563 6.91406H10.4297C9.13736 6.91406 8.08594 5.86264 8.08594 4.57033V2.34374C8.08594 1.05142 9.13736 0 10.4297 0ZM12.6563 5.7422C13.3024 5.7422 13.8281 5.21647 13.8281 4.57033V2.34374C13.8281 1.69757 13.3024 1.17187 12.6563 1.17187H10.4297C9.7835 1.17187 9.25781 1.69757 9.25781 2.34374V4.57033C9.25781 5.21647 9.7835 5.7422 10.4297 5.7422H12.6563Z" fill="#878D9F"/>
<path fill-rule="evenodd" clip-rule="evenodd" d="M4.57033 8.08594H2.34374C1.05142 8.08594 0 9.13736 0 10.4297V12.6563C0 13.9486 1.05142 15 2.34374 15H4.57033C5.86264 15 6.91406 13.9486 6.91406 12.6563V10.4297C6.91406 9.13736 5.86264 8.08594 4.57033 8.08594ZM5.7422 12.6563C5.7422 13.3024 5.21647 13.8281 4.57033 13.8281H2.34374C1.69757 13.8281 1.17187 13.3024 1.17187 12.6563V10.4297C1.17187 9.7835 1.69757 9.25781 2.34374 9.25781H4.57033C5.21647 9.25781 5.7422 9.7835 5.7422 10.4297V12.6563Z" fill="#878D9F"/>
<path d="M13.8281 12.6563C13.8281 12.3325 14.0903 12.0703 14.4141 12.0703C14.7376 12.0703 15 12.3325 15 12.6563C15 13.9486 13.9486 15 12.6563 15H10.4297C9.13736 15 8.08594 13.9486 8.08594 12.6563V10.4297C8.08594 9.13736 9.13736 8.08594 10.4297 8.08594H12.6563C13.5878 8.08594 14.4311 8.63752 14.8044 9.49126C14.934 9.78778 14.7987 10.1333 14.5023 10.2629C14.2058 10.3925 13.8603 10.2573 13.7307 9.96074C13.5439 9.53374 13.1222 9.2578 12.6563 9.2578H10.4297C9.7835 9.2578 9.2578 9.7835 9.2578 10.4297V12.6563C9.2578 13.3024 9.7835 13.8281 10.4297 13.8281H12.6563C13.3024 13.8281 13.8281 13.3024 13.8281 12.6563Z" fill="#878D9F"/>
</svg>
