<svg width="15" height="19" viewBox="0 0 15 19" fill="none" xmlns="http://www.w3.org/2000/svg">
<path d="M7.5 10.0962C11.6421 10.0962 15 13.454 15 17.5962C15 17.8886 14.9833 18.1772 14.9507 18.461L14.9435 18.5217L13.6821 18.5215L12.7448 18.5209L11.7293 18.5195L11.0597 18.5181L10.3663 18.5162L9.65158 18.5137L9.06622 18.5112L8.47019 18.5084L7.86481 18.505L7.25139 18.5011L6.63123 18.4966L6.16249 18.4928L5.69126 18.4887L5.21808 18.4843L4.74352 18.4794L4.26812 18.4741L3.79243 18.4684L3.31702 18.4623L2.84244 18.4557L2.36923 18.4487L2.05479 18.4437L1.74138 18.4386L1.42915 18.4332L1.11828 18.4275L0.808914 18.4216L0.501229 18.4155L0.0432054 18.4059C0.014649 18.1399 0 17.8697 0 17.5962C0 13.454 3.35786 10.0962 7.5 10.0962ZM9.9527 12.0556L8.22115 14.8237V17.0653L8.53959 17.067L9.27775 17.0703L9.77916 17.0721L10.6755 17.0748L11.731 17.0771L12.8219 17.0786L13.5358 17.0791L13.5288 17.0012C13.3129 14.7861 11.9039 12.9206 9.9527 12.0556ZM1.48146 16.9036L1.47213 16.9917L1.97569 17.0005L2.39085 17.0073L3.01953 17.0167L3.44304 17.0226L3.97786 17.0295L4.51924 17.0358L4.95745 17.0405L5.51205 17.046L6.07478 17.051L6.6462 17.0555L6.77885 17.0564V14.8294L5.00093 12.0763C3.10239 12.9373 1.72669 14.7489 1.48146 16.9036ZM7.5 11.5385C7.13533 11.5385 6.77819 11.5707 6.43126 11.6324L7.4903 13.2724L8.52129 11.6242C8.22119 11.5732 7.91357 11.5444 7.60017 11.5393L7.5 11.5385ZM7.5 0C9.98926 0 12.0072 2.01795 12.0072 4.50721C12.0072 6.99647 9.98926 9.01442 7.5 9.01442C5.01074 9.01442 2.99279 6.99647 2.99279 4.50721C2.99279 2.01795 5.01074 0 7.5 0ZM7.5 1.44231C5.8073 1.44231 4.4351 2.81451 4.4351 4.50721C4.4351 6.19991 5.8073 7.57211 7.5 7.57211C9.1927 7.57211 10.5649 6.19991 10.5649 4.50721C10.5649 2.81451 9.1927 1.44231 7.5 1.44231Z" fill="#E60023"/>
</svg>
