<svg width="15" height="15" viewBox="0 0 15 15" fill="none" xmlns="http://www.w3.org/2000/svg">
<g clip-path="url(#clip0_8970_21897)">
<path d="M14.0529 6.85782L7.4998 10.7903L0.946677 6.85782C0.804538 6.77254 0.634341 6.74721 0.473529 6.78742C0.312716 6.82762 0.174461 6.93006 0.0891773 7.0722C0.00389358 7.21434 -0.0214324 7.38453 0.0187707 7.54535C0.0589738 7.70616 0.161413 7.84441 0.303552 7.9297L7.17855 12.0547C7.27576 12.1131 7.38703 12.144 7.50043 12.144C7.61383 12.144 7.7251 12.1131 7.8223 12.0547L14.6973 7.9297C14.8394 7.84441 14.9419 7.70616 14.9821 7.54535C15.0223 7.38453 14.997 7.21434 14.9117 7.0722C14.8264 6.93006 14.6881 6.82762 14.5273 6.78742C14.3665 6.74721 14.1963 6.77254 14.0542 6.85782H14.0529Z" fill="#878D9F"/>
<path d="M14.0529 9.71282L7.4998 13.6447L0.946677 9.71282C0.876297 9.6706 0.798288 9.64264 0.717105 9.63056C0.635922 9.61848 0.553155 9.62251 0.473529 9.64242C0.393902 9.66232 0.318977 9.69772 0.25303 9.74658C0.187083 9.79544 0.131405 9.85682 0.0891773 9.9272C0.0469491 9.99758 0.0189968 10.0756 0.00691642 10.1568C-0.00516396 10.238 -0.00113588 10.3207 0.0187707 10.4003C0.0589738 10.5612 0.161413 10.6994 0.303552 10.7847L7.17855 14.9097C7.27576 14.9681 7.38702 14.999 7.50043 14.999C7.61383 14.999 7.72509 14.9681 7.8223 14.9097L14.6973 10.7847C14.8394 10.6994 14.9419 10.5612 14.9821 10.4003C15.0223 10.2395 14.997 10.0693 14.9117 9.9272C14.8264 9.78506 14.6881 9.68262 14.5273 9.64242C14.3665 9.60221 14.1963 9.62754 14.0542 9.71282H14.0529Z" fill="#878D9F"/>
<path d="M7.4998 9.23157C7.16267 9.23139 6.83192 9.13957 6.54293 8.96595L0.302927 5.22157C0.21052 5.16601 0.134059 5.08748 0.0809777 4.99362C0.0278964 4.89977 0 4.79378 0 4.68595C0 4.57812 0.0278964 4.47213 0.0809777 4.37827C0.134059 4.28442 0.21052 4.20589 0.302927 4.15032L6.54293 0.405948C6.83191 0.232341 7.16268 0.140625 7.4998 0.140625C7.83692 0.140625 8.1677 0.232341 8.45668 0.405948L14.6967 4.15032C14.7891 4.20589 14.8655 4.28442 14.9186 4.37827C14.9717 4.47213 14.9996 4.57812 14.9996 4.68595C14.9996 4.79378 14.9717 4.89977 14.9186 4.99362C14.8655 5.08748 14.7891 5.16601 14.6967 5.22157L8.45668 8.96595C8.16769 9.13957 7.83694 9.23139 7.4998 9.23157ZM1.8398 4.68595L7.1873 7.89407C7.28175 7.95057 7.38975 7.98041 7.4998 7.98041C7.60986 7.98041 7.71786 7.95057 7.8123 7.89407L13.1598 4.68595L7.8123 1.47782C7.71786 1.42133 7.60986 1.39149 7.4998 1.39149C7.38975 1.39149 7.28175 1.42133 7.1873 1.47782L1.8398 4.68595Z" fill="#878D9F"/>
</g>
<defs>
<clipPath id="clip0_8970_21897">
<rect width="15" height="15" fill="white"/>
</clipPath>
</defs>
</svg>
