<svg width="18" height="18" viewBox="0 0 18 18" fill="none" xmlns="http://www.w3.org/2000/svg">
<path d="M8.99922 8.94352C11.6502 8.94352 13.7992 11.119 13.7992 13.8027C13.7992 13.9922 13.7885 14.1791 13.7677 14.363L13.763 14.4023L12.9558 14.4022L12.3559 14.4018L11.706 14.4009L11.2774 14.4L10.8336 14.3987L10.3762 14.3971L10.0016 14.3956L9.62014 14.3937L9.23269 14.3915L8.84011 14.389L8.44321 14.3861L8.14321 14.3836L7.84162 14.381L7.53879 14.3781L7.23507 14.3749L6.93081 14.3715L6.62638 14.3678L6.32211 14.3639L6.01838 14.3596L5.71552 14.355L5.51429 14.3518L5.3137 14.3485L5.11388 14.345L4.91492 14.3413L4.71692 14.3375L4.52001 14.3335L4.22687 14.3273C4.20859 14.155 4.19922 13.9799 4.19922 13.8027C4.19922 11.119 6.34825 8.94352 8.99922 8.94352ZM10.5689 10.213L9.46076 12.0064V13.4587L9.66456 13.4598L10.137 13.462L10.4579 13.4632L11.0315 13.4649L11.7071 13.4664L12.4053 13.4673L12.8621 13.4677L12.8577 13.4172C12.7195 11.9821 11.8177 10.7734 10.5689 10.213ZM5.14735 13.354L5.14138 13.411L5.46366 13.4168L5.72936 13.4211L6.13172 13.4273L6.40276 13.4311L6.74505 13.4355L7.09153 13.4396L7.37199 13.4427L7.72693 13.4462L8.08708 13.4495L8.45278 13.4524L8.53768 13.453V12.0101L7.39981 10.2265C6.18475 10.7842 5.3043 11.958 5.14735 13.354ZM8.99922 9.87797C8.76583 9.87797 8.53726 9.89885 8.31523 9.93885L8.99301 11.0014L9.65284 9.93351C9.46078 9.9005 9.26391 9.88179 9.06333 9.87849L8.99922 9.87797ZM8.99922 2.40234C10.5923 2.40234 11.8838 3.70975 11.8838 5.32251C11.8838 6.93527 10.5923 8.24268 8.99922 8.24268C7.40609 8.24268 6.1146 6.93527 6.1146 5.32251C6.1146 3.70975 7.40609 2.40234 8.99922 2.40234ZM8.99922 3.3368C7.91589 3.3368 7.03768 4.22583 7.03768 5.32251C7.03768 6.41919 7.91589 7.30822 8.99922 7.30822C10.0825 7.30822 10.9608 6.41919 10.9608 5.32251C10.9608 4.22583 10.0825 3.3368 8.99922 3.3368Z" fill="#878D9F"/>
<circle cx="9" cy="9" r="8.5" stroke="#878D9F"/>
</svg>
