<svg width="15" height="16" viewBox="0 0 15 16" fill="none" xmlns="http://www.w3.org/2000/svg">
<g clip-path="url(#clip0_8970_21909)">
<path d="M11.8749 0.664062H8.74987C8.58411 0.664063 8.42514 0.729911 8.30793 0.847121C8.19072 0.964331 8.12487 1.1233 8.12487 1.28906C8.12487 1.45482 8.19072 1.61379 8.30793 1.731C8.42514 1.84821 8.58411 1.91406 8.74987 1.91406H11.8749C12.1533 1.91514 12.4279 1.97924 12.678 2.10156L0.182993 14.5972C0.123299 14.6548 0.0756849 14.7238 0.0429293 14.8001C0.0101736 14.8763 -0.00706777 14.9583 -0.0077889 15.0413C-0.00851004 15.1243 0.00730353 15.2066 0.0387291 15.2834C0.0701546 15.3602 0.116563 15.43 0.175246 15.4887C0.233929 15.5474 0.303711 15.5938 0.380521 15.6252C0.457332 15.6566 0.539631 15.6724 0.622618 15.6717C0.705606 15.671 0.787618 15.6538 0.863871 15.621C0.940123 15.5882 1.00909 15.5406 1.06674 15.4809L13.5624 2.98594C13.6847 3.23606 13.7488 3.51063 13.7499 3.78906V6.91406C13.7499 7.07982 13.8157 7.23879 13.9329 7.356C14.0501 7.47322 14.2091 7.53906 14.3749 7.53906C14.5406 7.53906 14.6996 7.47322 14.8168 7.356C14.934 7.23879 14.9999 7.07982 14.9999 6.91406V3.78906C14.9989 2.96057 14.6693 2.16629 14.0835 1.58045C13.4976 0.994614 12.7034 0.665055 11.8749 0.664062Z" fill="#878D9F"/>
<path d="M3.74987 6.91406C4.24432 6.91406 4.72767 6.76744 5.13879 6.49274C5.54992 6.21803 5.87035 5.82759 6.05957 5.37077C6.24879 4.91396 6.29829 4.41129 6.20183 3.92634C6.10537 3.44138 5.86727 2.99593 5.51763 2.6463C5.168 2.29666 4.72255 2.05856 4.23759 1.9621C3.75264 1.86564 3.24997 1.91514 2.79316 2.10436C2.33634 2.29358 1.9459 2.61401 1.67119 3.02514C1.39649 3.43626 1.24987 3.91961 1.24987 4.41406C1.24987 5.0771 1.51326 5.71299 1.9821 6.18183C2.45094 6.65067 3.08683 6.91406 3.74987 6.91406ZM3.74987 3.16406C3.99709 3.16406 4.23877 3.23737 4.44433 3.37473C4.64989 3.51208 4.81011 3.7073 4.90472 3.93571C4.99933 4.16412 5.02408 4.41545 4.97585 4.65793C4.92762 4.9004 4.80857 5.12313 4.63375 5.29795C4.45894 5.47276 4.23621 5.59181 3.99373 5.64004C3.75125 5.68828 3.49992 5.66352 3.27151 5.56891C3.04311 5.4743 2.84788 5.31409 2.71053 5.10853C2.57318 4.90296 2.49987 4.66129 2.49987 4.41406C2.49987 4.08254 2.63156 3.7646 2.86598 3.53018C3.1004 3.29576 3.41835 3.16406 3.74987 3.16406Z" fill="#878D9F"/>
<path d="M11.2499 9.41406C10.7554 9.41406 10.2721 9.56069 9.86094 9.83539C9.44982 10.1101 9.12939 10.5005 8.94017 10.9574C8.75095 11.4142 8.70144 11.9168 8.7979 12.4018C8.89437 12.8867 9.13247 13.3322 9.4821 13.6818C9.83173 14.0315 10.2772 14.2696 10.7621 14.366C11.2471 14.4625 11.7498 14.413 12.2066 14.2238C12.6634 14.0345 13.0538 13.7141 13.3285 13.303C13.6032 12.8919 13.7499 12.4085 13.7499 11.9141C13.7499 11.251 13.4865 10.6151 13.0176 10.1463C12.5488 9.67745 11.9129 9.41406 11.2499 9.41406ZM11.2499 13.1641C11.0026 13.1641 10.761 13.0908 10.5554 12.9534C10.3498 12.816 10.1896 12.6208 10.095 12.3924C10.0004 12.164 9.97566 11.9127 10.0239 11.6702C10.0721 11.4277 10.1912 11.205 10.366 11.0302C10.5408 10.8554 10.7635 10.7363 11.006 10.6881C11.2485 10.6398 11.4998 10.6646 11.7282 10.7592C11.9566 10.8538 12.1519 11.014 12.2892 11.2196C12.4266 11.4252 12.4999 11.6668 12.4999 11.9141C12.4999 12.2456 12.3682 12.5635 12.1338 12.7979C11.8993 13.0324 11.5814 13.1641 11.2499 13.1641Z" fill="#E60023"/>
</g>
<defs>
<clipPath id="clip0_8970_21909">
<rect width="15" height="15" fill="white" transform="translate(0 0.664062)"/>
</clipPath>
</defs>
</svg>
